<?xml version="1.0" encoding="UTF-8"?>
<svg version="1.1" xmlns="http://www.w3.org/2000/svg" width="200" height="73">
<path d="M0 0 C21.78 0.495 21.78 0.495 44 1 C44 5.29 44 9.58 44 14 C34.43 14 24.86 14 15 14 C15 18.62 15 23.24 15 28 C23.58 28 32.16 28 41 28 C41 32.29 41 36.58 41 41 C32.42 41 23.84 41 15 41 C15 49.25 15 57.5 15 66 C10.05 66 5.1 66 0 66 C0 44.22 0 22.44 0 0 Z " fill="#15665D" transform="translate(0,7)"/>
<path d="M0 0 C16.17 0 32.34 0 49 0 C49 4.29 49 8.58 49 13 C43.39 13 37.78 13 32 13 C32 30.16 32 47.32 32 65 C27.05 65 22.1 65 17 65 C16.9753364 57.91585547 16.9571574 50.83173577 16.94506836 43.74755859 C16.94003026 41.33609583 16.93319966 38.92463614 16.92456055 36.51318359 C16.91247213 33.05305221 16.90676656 29.5929611 16.90234375 26.1328125 C16.89718246 25.04944611 16.89202118 23.96607971 16.88670349 22.84988403 C16.88659019 21.34855423 16.88659019 21.34855423 16.88647461 19.81689453 C16.884254 18.93309113 16.88203339 18.04928772 16.87974548 17.13870239 C17 15 17 15 18 13 C12.06 13 6.12 13 0 13 C0 8.71 0 4.42 0 0 Z " fill="#17665E" transform="translate(151,8)"/>
<path d="M0 0 C2.41854446 -0.13536629 4.82949783 -0.23420279 7.25 -0.3125 C8.27287109 -0.3753418 8.27287109 -0.3753418 9.31640625 -0.43945312 C11.328125 -0.48828125 11.328125 -0.48828125 15 0 C17.3125 2.25 17.3125 2.25 19 5 C19.48984375 5.73863281 19.9796875 6.47726563 20.484375 7.23828125 C20.90203125 7.92277344 21.3196875 8.60726562 21.75 9.3125 C22.17796875 10.00988281 22.6059375 10.70726562 23.046875 11.42578125 C23.36140625 11.94527344 23.6759375 12.46476562 24 13 C24.38671875 12.39671875 24.7734375 11.7934375 25.171875 11.171875 C25.69265625 10.37265625 26.2134375 9.5734375 26.75 8.75 C27.26046875 7.96109375 27.7709375 7.1721875 28.296875 6.359375 C30.10298345 3.85733486 31.53862673 1.88021569 34 0 C37.453125 -0.390625 37.453125 -0.390625 41.25 -0.25 C42.51328125 -0.21390625 43.7765625 -0.1778125 45.078125 -0.140625 C46.52445313 -0.07101563 46.52445313 -0.07101563 48 0 C47.38607088 3.24344172 46.27669597 5.29629978 44.3125 7.93359375 C43.77882812 8.66513672 43.24515625 9.39667969 42.6953125 10.15039062 C41.56697204 11.67261029 40.43676819 13.19345053 39.3046875 14.71289062 C38.77101562 15.44572266 38.23734375 16.17855469 37.6875 16.93359375 C37.19636719 17.59415771 36.70523438 18.25472168 36.19921875 18.93530273 C34.80755274 21.33133682 34.27667576 23.24748101 34 26 C35.4127881 28.68883988 35.4127881 28.68883988 37.5625 31.25 C38.29597656 32.20261719 39.02945313 33.15523437 39.78515625 34.13671875 C40.51605469 35.08160156 41.24695313 36.02648438 42 37 C43.18492636 38.6747289 44.35378411 40.36104283 45.5 42.0625 C45.9846875 42.77535156 46.469375 43.48820312 46.96875 44.22265625 C48 46 48 46 48 48 C36.96174562 49.4467615 36.96174562 49.4467615 32 48 C28.26529695 44.49102076 26.10087144 40.6440316 24 36 C22.11920854 37.66522797 21.01803492 38.96089057 19.95703125 41.26171875 C18.57804983 44.18440634 17.50723697 45.92416155 15 48 C9.56627889 48.80619008 4.45086627 48.52437075 -1 48 C0.31554159 45.2407202 1.77663809 42.75142022 3.53125 40.25 C4.01207031 39.5590625 4.49289063 38.868125 4.98828125 38.15625 C5.99609375 36.71875 7.00390625 35.28125 8.01171875 33.84375 C8.49253906 33.1528125 8.97335938 32.461875 9.46875 31.75 C9.90638672 31.12609375 10.34402344 30.5021875 10.79492188 29.859375 C12.02290001 27.96466643 13.02900049 26.03662078 14 24 C13.64695801 23.47043701 13.29391602 22.94087402 12.93017578 22.39526367 C0 3 0 3 0 0 Z " fill="#1F6C64" transform="translate(74,25)"/>
<path d="M0 0 C4.62 0 9.24 0 14 0 C14 21.45 14 42.9 14 65 C9.38 65 4.76 65 0 65 C-1.79096045 63.20903955 -1.12766791 60.53667215 -1.12939453 58.11914062 C-1.13254669 56.86113647 -1.13569885 55.60313232 -1.13894653 54.30700684 C-1.13715675 52.92342087 -1.1351058 51.53983522 -1.1328125 50.15625 C-1.13348559 48.74759911 -1.13445565 47.33894834 -1.13571167 45.93029785 C-1.13718842 42.97451677 -1.13503483 40.01876586 -1.13037109 37.06298828 C-1.12467381 33.26625416 -1.12795293 29.46959072 -1.13394356 25.67285919 C-1.13754979 22.76303572 -1.1364103 19.85322912 -1.13381577 16.94340515 C-1.13314667 15.543106 -1.13397432 14.14280533 -1.13629532 12.74250793 C-1.13882283 10.78862536 -1.13429033 8.83473745 -1.12939453 6.88085938 C-1.12859894 5.76690796 -1.12780334 4.65295654 -1.12698364 3.50524902 C-1 1 -1 1 0 0 Z " fill="#216C64" transform="translate(130,8)"/>
<path d="M0 0 C1.093125 0.00257812 2.18625 0.00515625 3.3125 0.0078125 C4.405625 0.00523438 5.49875 0.00265625 6.625 0 C9.3125 0.1328125 9.3125 0.1328125 10.3125 1.1328125 C10.40554018 2.60635598 10.42996265 4.08431841 10.42602539 5.56079102 C10.42594986 6.50169083 10.42587433 7.44259064 10.42579651 8.41200256 C10.42063522 9.43490891 10.41547394 10.45781525 10.41015625 11.51171875 C10.4087413 12.55351791 10.40732635 13.59531708 10.40586853 14.66868591 C10.4002508 18.01092344 10.3876953 21.35309507 10.375 24.6953125 C10.36998728 26.95507716 10.36542398 29.21484287 10.36132812 31.47460938 C10.35027561 37.02736932 10.3329991 42.58007972 10.3125 48.1328125 C5.6925 48.1328125 1.0725 48.1328125 -3.6875 48.1328125 C-3.71214296 41.45760368 -3.73033267 34.7824211 -3.74243164 28.10717773 C-3.74747325 25.83438659 -3.75430637 23.5615987 -3.76293945 21.28881836 C-3.77501261 18.02977699 -3.78072987 14.77077833 -3.78515625 11.51171875 C-3.79031754 10.48881241 -3.79547882 9.46590607 -3.80079651 8.41200256 C-3.80087204 7.47110275 -3.80094757 6.53020294 -3.80102539 5.56079102 C-3.803246 4.72806168 -3.80546661 3.89533234 -3.80775452 3.03736877 C-3.61543614 -0.00851407 -3.07411684 0.15191856 0 0 Z " fill="#216B63" transform="translate(56.6875,24.8671875)"/>
<path d="M0 0 C5.57894737 3.15789474 5.57894737 3.15789474 7 6 C7.5811138 13.08958838 7.5811138 13.08958838 5.125 16.9375 C2.37722199 19.60446101 1.553254 19.95824498 -2.3125 20.25 C-6.22632394 19.984656 -7.93192479 19.36680088 -11 17 C-13.44605705 13.33091443 -13.83946402 10.26381231 -13 6 C-9.02999967 1.08973643 -6.29462787 -0.60525268 0 0 Z " fill="#F84736" transform="translate(64,0)"/>
<path d="M0 0 C2.41854446 -0.13536629 4.82949783 -0.23420279 7.25 -0.3125 C8.27287109 -0.3753418 8.27287109 -0.3753418 9.31640625 -0.43945312 C11.328125 -0.48828125 11.328125 -0.48828125 15 0 C17.27734375 2.23046875 17.27734375 2.23046875 19 5 C19.57363281 5.77601562 20.14726563 6.55203125 20.73828125 7.3515625 C21.51751953 8.47691406 21.51751953 8.47691406 22.3125 9.625 C23.11107422 10.75808594 23.11107422 10.75808594 23.92578125 11.9140625 C24.28027344 12.60242187 24.63476562 13.29078125 25 14 C24.67 14.99 24.34 15.98 24 17 C23.34 16.67 22.68 16.34 22 16 C18.91910327 18.77280706 17.31224548 21.06326356 16 25 C16.66 25.33 17.32 25.66 18 26 C16.68 26.33 15.36 26.66 14 27 C13.94714844 26.34257813 13.89429687 25.68515625 13.83984375 25.0078125 C12.63043704 20.67644892 10.16213486 17.50193657 7.5625 13.875 C7.05912109 13.15957031 6.55574219 12.44414063 6.03710938 11.70703125 C5.10225454 10.37861867 4.16392116 9.0526421 3.22094727 7.72998047 C0 3.16616677 0 3.16616677 0 0 Z " fill="#2A736C" transform="translate(74,25)"/>
<path d="M0 0 C0 20.13 0 40.26 0 61 C3.96 61.33 7.92 61.66 12 62 C12 62.33 12 62.66 12 63 C7.05 63 2.1 63 -3 63 C-3 42.54 -3 22.08 -3 1 C-1 0 -1 0 0 0 Z " fill="#398079" transform="translate(3,10)"/>
<path d="M0 0 C21.78 0.495 21.78 0.495 44 1 C44 5.29 44 9.58 44 14 C40.04 14 36.08 14 32 14 C35.6441774 11.5705484 37.71241272 11.83820425 42 12 C42 9.03 42 6.06 42 3 C21.21 3.495 21.21 3.495 0 4 C0 2.68 0 1.36 0 0 Z " fill="#1F5E57" transform="translate(0,7)"/>
<path d="M0 0 C1.98 0 3.96 0 6 0 C6.06058594 0.77085938 6.12117187 1.54171875 6.18359375 2.3359375 C6.26738281 3.33882812 6.35117188 4.34171875 6.4375 5.375 C6.51871094 6.37273438 6.59992188 7.37046875 6.68359375 8.3984375 C6.84965626 10.97927613 6.84965626 10.97927613 8 13 C7.93693134 16.13897143 7.52672728 19.25503205 7.1875 22.375 C7.10435547 23.23867188 7.02121094 24.10234375 6.93554688 24.9921875 C6.84724609 25.8275 6.75894531 26.6628125 6.66796875 27.5234375 C6.58828857 28.28575684 6.5086084 29.04807617 6.42651367 29.83349609 C5.96770621 32.16403841 5.15152356 33.93283184 4 36 C3.97531354 31.33691801 3.95714651 26.67387392 3.94506836 22.01074219 C3.94003412 20.42382139 3.93320631 18.83690523 3.92456055 17.25 C3.91245518 14.97134251 3.90676267 12.69274624 3.90234375 10.4140625 C3.89718246 9.70255035 3.89202118 8.99103821 3.88670349 8.25796509 C3.88612829 3.22774341 3.88612829 3.22774341 5 1 C3.35 1 1.7 1 0 1 C0 0.67 0 0.34 0 0 Z " fill="#58857D" transform="translate(164,20)"/>
<path d="M0 0 C4.95 0 9.9 0 15 0 C15.33 0.66 15.66 1.32 16 2 C12.04 2 8.08 2 4 2 C4.66 4.64 5.32 7.28 6 10 C2.08314366 6.48487252 1.07597185 5.37985925 0 0 Z " fill="#75958F" transform="translate(74,25)"/>
<path d="M0 0 C0.33 0 0.66 0 1 0 C1.06058594 0.92683594 1.12117187 1.85367188 1.18359375 2.80859375 C1.26738281 4.00613281 1.35117187 5.20367187 1.4375 6.4375 C1.51871094 7.63246094 1.59992187 8.82742187 1.68359375 10.05859375 C1.67656114 12.88570244 1.67656114 12.88570244 3 14 C3 15.65 3 17.3 3 19 C6.96 19.33 10.92 19.66 15 20 C15 20.33 15 20.66 15 21 C10.05 21 5.1 21 0 21 C0 14.07 0 7.14 0 0 Z " fill="#8CAEAA" transform="translate(0,52)"/>
<path d="M0 0 C3.875 2.75 3.875 2.75 5 5 C4.67 5.66 4.34 6.32 4 7 C4.66 7.33 5.32 7.66 6 8 C6 8.66 6 9.32 6 10 C10.95 10 15.9 10 21 10 C21 10.66 21 11.32 21 12 C6.75647577 13.37022026 6.75647577 13.37022026 2.56640625 10.1015625 C0.96976781 7.73532136 -0.20864674 5.74367387 -1 3 C-0.67 2.01 -0.34 1.02 0 0 Z " fill="#5D8D87" transform="translate(101,61)"/>
<path d="M0 0 C4.62 0 9.24 0 14 0 C13.04065919 3.83736322 12.76390737 4.59660228 10 7 C10 5.68 10 4.36 10 3 C6.7 2.34 3.4 1.68 0 1 C0 0.67 0 0.34 0 0 Z " fill="#84A49E" transform="translate(108,25)"/>
<path d="M0 0 C3.08089673 2.77280706 4.68775452 5.06326356 6 9 C5.38125 9.144375 4.7625 9.28875 4.125 9.4375 C1.96741678 9.93152225 1.96741678 9.93152225 0 11 C0 7.33333333 0 3.66666667 0 0 Z " fill="#528983" transform="translate(110,55)"/>
<path d="M0 0 C3.96 0 7.92 0 12 0 C11.67 0.66 11.34 1.32 11 2 C8.35139573 2.59355614 5.70802678 2.74209269 3 3 C2.67 3.99 2.34 4.98 2 6 C0 3 0 3 0 0 Z " fill="#085F57" transform="translate(78,27)"/>
<path d="M0 0 C0.33 0 0.66 0 1 0 C1.33 3.96 1.66 7.92 2 12 C1.01 12 0.02 12 -1 12 C-1.14285714 3.42857143 -1.14285714 3.42857143 0 0 Z " fill="#2B655E" transform="translate(152,9)"/>
</svg>
